PathFileType	4	(X/Y/Z)	motion.trc
DataRate	CameraRate	NumFrames	NumMarkers	Units	OrigDataRate	OrigDataStartFrame	OrigNumFrames
25	25	15	9	mm	25	42	249
Frame#	Time	mPelvis	mHipR	mHipL	mKneeR	mKneeL	mAnkleR	mAnkleL	mToesR	mToesL
X1 Y1 Z1 X2 Y2 Z2 X3 Y3 Z3 X4 Y4 Z4 X5 Y5 Z5 X6 Y6 Z6 X7 Y7 Z7 X8 Y8 Z8 X9 Y9 Z9
42	1.794000	-194.284230	25.450837	2835.161448	-105.966985	-69.082506	2829.655409	-285.380632	-63.750014	2830.692053	-36.079809	-583.460867	2846.315384	-350.999355	-543.121457	2989.402294	-7.725615	-932.706654	2795.982838	-385.331899	-919.488132	3232.778311	-2.419095	-979.894578	2709.239244	-459.095567	-997.939706	3265.506744	
43	1.809000	-213.413328	24.112316	2852.816820	-123.853184	-69.460832	2847.248793	-302.963525	-66.212483	2848.322153	-44.789627	-582.885146	2849.670172	-358.178318	-542.502642	3006.927013	-10.247312	-931.177080	2792.711258	-385.629028	-917.514920	3244.457722	-4.114119	-979.226708	2706.969023	-456.272125	-995.963037	3273.556471	
44	1.872000	-231.602132	23.180313	2869.641304	-140.810102	-69.478154	2864.000797	-319.764912	-68.155341	2865.175962	-53.555012	-582.231641	2853.170395	-364.689320	-541.840851	3022.518873	-13.153680	-929.395437	2790.271521	-385.554999	-915.368736	3253.646135	-5.958627	-978.483975	2705.180168	-452.545911	-993.399620	3278.604507	
45	1.887000	-248.670757	22.608791	2885.515451	-157.139838	-69.048107	2880.357504	-335.360914	-69.698811	2880.860090	-62.694535	-581.340849	2857.161283	-370.536864	-541.161716	3036.364079	-16.529642	-927.576780	2789.646626	-385.103315	-913.146913	3260.370493	-8.968441	-977.629542	2705.560446	-448.202252	-990.696430	3280.533075	
46	1.918000	-264.635175	22.276856	2900.407553	-172.332704	-68.407111	2895.597696	-349.983454	-70.895009	2895.687103	-72.164088	-579.494059	2861.597776	-375.777811	-540.530324	3048.714638	-20.709384	-925.766408	2790.823936	-384.310246	-910.833538	3264.630556	-12.095201	-976.934075	2706.941366	-443.458825	-987.882733	3279.715300	
47	1.965000	-279.363066	22.022353	2914.157152	-186.331451	-67.701250	2909.774542	-363.339365	-71.957603	2909.291744	-81.905827	-576.976895	2866.542578	-380.545467	-539.907217	3059.836864	-26.336182	-923.440576	2794.739246	-383.168131	-908.587575	3266.263485	-16.923746	-976.015508	2713.575363	-438.702822	-985.551000	3276.658297	
48	1.981000	-292.873293	21.852691	2926.766396	-199.104846	-66.993944	2922.774315	-375.596672	-72.869666	2921.812773	-91.345556	-574.336290	2871.602774	-384.913057	-539.296210	3069.856405	-33.605359	-922.077060	2805.292368	-381.783336	-906.381011	3265.690327	-23.377128	-975.864112	2728.565693	-433.856398	-983.314514	3271.807432	
49	2.028000	-305.107415	21.652684	2938.228130	-210.663766	-66.362701	2934.607983	-386.685252	-73.758155	2933.180094	-100.951374	-571.358621	2877.413988	-388.919055	-538.712740	3078.887939	-41.126691	-921.263516	2820.010900	-380.172461	-904.407561	3263.545752	-31.992353	-977.745175	2752.045393	-429.090381	-981.344461	3265.348434	
50	2.043000	-316.343397	21.488748	2948.710680	-221.306399	-65.746658	2945.444345	-396.903098	-74.547380	2943.601370	-110.518128	-568.242669	2883.763552	-392.642558	-538.105369	3087.026596	-50.980955	-920.643747	2843.171597	-378.437877	-902.552664	3260.030031	-36.812440	-978.321970	2784.573555	-424.201936	-979.358137	3258.957148	
51	2.090000	-326.699048	21.338429	2958.351374	-231.081605	-65.183990	2955.310345	-406.344652	-75.229399	2953.231573	-119.915076	-565.028429	2890.683174	-396.050155	-537.527680	3094.331503	-60.780957	-918.984234	2870.124817	-376.649737	-900.826812	3255.493402	-42.129297	-978.213072	2826.933861	-419.497848	-977.495015	3251.910686	
52	2.121000	-336.058944	21.206548	2967.096806	-239.911944	-64.678214	2964.248896	-414.849669	-75.826190	2961.925030	-129.020363	-561.668456	2898.101330	-399.181247	-536.964118	3100.863457	-71.071170	-916.481376	2899.311543	-374.772221	-899.235606	3250.161171	-45.912229	-978.384912	2874.647856	-414.990753	-975.765288	3244.505882	
53	2.152000	-344.540656	21.117657	2975.035667	-247.916952	-64.188197	2972.379446	-422.505826	-76.339595	2969.758272	-137.887210	-557.724059	2906.413078	-402.086914	-536.404252	3106.658459	-82.226798	-912.050068	2932.771206	-372.875690	-897.814035	3244.320869	-53.251483	-975.326717	2925.134182	-410.817623	-974.147320	3236.816883	
54	2.184000	-352.196842	21.037631	2982.214689	-255.132079	-63.752115	2979.726315	-429.400861	-76.793097	2976.800680	-146.318182	-553.698599	2915.657759	-404.795587	-535.836995	3111.750126	-93.857713	-908.508122	2970.119476	-371.023059	-896.571040	3238.220453	-60.478605	-972.825348	2972.337961	-406.942695	-972.689569	3229.096889	
55	2.215000	-359.063178	20.969229	2988.704443	-261.605024	-63.354991	2986.443996	-435.572118	-77.202596	2983.113050	-154.245570	-549.524486	2925.559759	-407.313943	-535.254180	3116.170883	-104.338855	-905.183494	3005.566597	-369.123310	-895.482600	3232.040405	-65.467872	-972.009778	3020.731926	-403.389126	-971.363246	3221.368551	
56	2.246000	-365.232557	20.908013	2994.584084	-267.421812	-62.993012	2992.568970	-441.107929	-77.577226	2988.787174	-161.839992	-545.680583	2937.437296	-409.647256	-534.663439	3119.965315	-114.526294	-902.437449	3041.699171	-367.307007	-894.559324	3225.836277	-70.482098	-971.190214	3065.184593	-400.101066	-970.257282	3213.730812	
